<svg id="logoImgS" xmlns="http://www.w3.org/2000/svg" viewBox="0 0 32 22.64"><defs><style>.cls-1,.cls-2,.cls-3,.cls-4{fill:#38445b;}.cls-2{opacity:0.31;}.cls-3{opacity:0.03;}.cls-4{opacity:0.35;}</style></defs><title>home</title><path class="cls-1" d="M9.61,7.75A8.82,8.82,0,0,0,8,9.19c-.06.06-.11.13-.16.19l-.13.15a9.15,9.15,0,0,0-2,5.74c0,.32,0,.63,0,.94v0A12.67,12.67,0,0,0,5.88,18c.18,1.1.48,2.19.72,3.27.11.48.26,1,.36,1.44s.16,1,.23,1.5c0,.21,0,.42,0,.63h0c0,.19,0,.39,0,.58a.28.28,0,0,0,0,.09,2.42,2.42,0,0,1-.52,1.22,2.23,2.23,0,0,1-.27.26,2.16,2.16,0,0,1-.38.27,2.79,2.79,0,0,1-1.07.2,2.64,2.64,0,0,1-1.73-.59.24.24,0,0,0-.15,0,1,1,0,0,1-.71-.26l-.12-.14a1.46,1.46,0,0,1-.24-.66A1,1,0,0,1,2.26,25a.18.18,0,0,1,.07,0s0,0,0,0a.81.81,0,0,1,.73,0,1.36,1.36,0,0,1,.4.2,1.29,1.29,0,0,1,.17.16.52.52,0,0,1,.1.11l.06.1,0,.05a0,0,0,0,1,0,0,.69.69,0,0,1,.05.13.83.83,0,0,1,0,.15A1.08,1.08,0,0,1,4,26V26a.1.1,0,0,0,0,.05.53.53,0,0,0,.41.17.55.55,0,0,0,.3-.09l.19-.12.31-.28a2.21,2.21,0,0,0,.61-.93,1.82,1.82,0,0,0,.07-.25,1.09,1.09,0,0,0,0-.25s0,0,0,0v0a1.15,1.15,0,0,0,0-.19h0c0-.07,0-.15,0-.22a4.11,4.11,0,0,0-.25-1.09l-.09-.22c-.39-.9-1-1.69-1.45-2.56a8.41,8.41,0,0,1-.89-4.15,9,9,0,0,1,.19-1.55c.05-.22.11-.45.18-.67A9.9,9.9,0,0,1,4,12.53c.16-.35.34-.68.53-1a10.51,10.51,0,0,1,.64-.95A11.91,11.91,0,0,1,6.23,9.38a8.51,8.51,0,0,1,.86-.73l0,0a2.17,2.17,0,0,0,0-.26A3.42,3.42,0,0,0,7,7.57,3.18,3.18,0,0,0,6.5,6.36L6,5.76l0,0a2.1,2.1,0,0,0-1.51-.66,2.3,2.3,0,0,0-.45,0,1.9,1.9,0,0,0-.4.14,1.65,1.65,0,0,0-.36.22,1.62,1.62,0,0,0-.35.34,2.35,2.35,0,0,0-.41,1.33,2.24,2.24,0,0,0,.1.68,1.09,1.09,0,0,1,.1.19.43.43,0,0,1,0,.05.09.09,0,0,1,0,0v.22a.11.11,0,0,0,0,.05s0,0,0,0a.86.86,0,0,1-.19.3l-.07.07,0,0a1.75,1.75,0,0,1-1,.42,1.7,1.7,0,0,1-1-.42l0,0s-.05,0-.06-.07A.64.64,0,0,1,0,8.29V8.17a.67.67,0,0,1,.22-.46l.06-.06s0,0,0,0A1.84,1.84,0,0,1,.7,7.34a1.63,1.63,0,0,1,.5-.16,1.1,1.1,0,0,1,.36,0l.16,0A3.42,3.42,0,0,1,2,6.3,3.18,3.18,0,0,1,3.48,5,2.55,2.55,0,0,1,4,4.84a1.46,1.46,0,0,1,.29,0l.41,0,.27,0A.89.89,0,0,1,5.35,5,4.27,4.27,0,0,1,6.66,6.14v0A3.17,3.17,0,0,1,7,6.74a5.22,5.22,0,0,1,.32.73s0,0,0,.06a4.54,4.54,0,0,1,.15.66c0,.05,0,.1,0,.15l.15-.1a7.87,7.87,0,0,1,.86-.47l.1,0a1.18,1.18,0,0,1,1,0Z" transform="translate(0 -4.82)"/><path class="cls-2" d="M5.94,24.09a1.09,1.09,0,0,1,0,.18v0C5.93,24.24,5.94,24.17,5.94,24.09Z" transform="translate(0 -4.82)"/><path class="cls-3" d="M2.68,8.39v0a0,0,0,0,0,0,0S2.68,8.41,2.68,8.39Z" transform="translate(0 -4.82)"/><path class="cls-3" d="M2.69,8.22v0h0Z" transform="translate(0 -4.82)"/><path class="cls-3" d="M2.69,8.18v0a0,0,0,0,0,0,0s0,0,0-.06a.09.09,0,0,1,0,0v0h0v0Z" transform="translate(0 -4.82)"/><path class="cls-1" d="M13.09,13.71v0a1.24,1.24,0,0,0,0-.33h0a1.2,1.2,0,0,0-.2-.41.58.58,0,0,0-.14-.17l-.07-.07a1.11,1.11,0,0,0-.54-.18h0a1.9,1.9,0,0,0-1.42.48,2.58,2.58,0,0,0-.51.68l-1.1,2a1.82,1.82,0,0,0-.23.89V17a1.93,1.93,0,0,0,.23.92s0,0,0,0a1.47,1.47,0,0,0,.4.33l.32.12c1.07.17,1.75,0,2.16-.72l.52-.63a2.58,2.58,0,0,0,.57-1.27,1.5,1.5,0,0,0,0-.2h0a3.89,3.89,0,0,0,0-.49v-1A2,2,0,0,0,13.09,13.71Zm-1.48,2.84c-.75.41-1.53.45-1.89-.27-.27-.52,0-1.36.93-1.86.14-.08.89-.6,1.47-.26a1.12,1.12,0,0,1,.47.69A1.72,1.72,0,0,1,11.61,16.55Z" transform="translate(0 -4.82)"/><path class="cls-1" d="M22.39,7.75A8.82,8.82,0,0,1,24,9.19c.06.06.11.13.16.19l.13.15a9.15,9.15,0,0,1,2,5.74c0,.32,0,.63,0,.94v0A12.67,12.67,0,0,1,26.12,18c-.18,1.1-.48,2.19-.72,3.27-.11.48-.26,1-.36,1.44s-.16,1-.23,1.5c0,.21,0,.42,0,.63h0c0,.19,0,.39,0,.58a.28.28,0,0,1,0,.09,2.42,2.42,0,0,0,.52,1.22,2.23,2.23,0,0,0,.27.26,2.16,2.16,0,0,0,.38.27,2.79,2.79,0,0,0,1.07.2,2.64,2.64,0,0,0,1.73-.59.24.24,0,0,1,.15,0,1,1,0,0,0,.71-.26l.12-.14a1.46,1.46,0,0,0,.24-.66,1,1,0,0,0-.21-.78.18.18,0,0,0-.07,0s0,0,0,0a.81.81,0,0,0-.73,0,1.36,1.36,0,0,0-.4.2,1.29,1.29,0,0,0-.17.16.52.52,0,0,0-.1.11l-.06.1,0,.05a0,0,0,0,0,0,0,.69.69,0,0,0-.05.13.83.83,0,0,0,0,.15,1.08,1.08,0,0,0,0,.18V26a.1.1,0,0,1,0,.05.53.53,0,0,1-.41.17.55.55,0,0,1-.3-.09l-.19-.12-.31-.28a2.21,2.21,0,0,1-.61-.93,1.82,1.82,0,0,1-.07-.25,1.09,1.09,0,0,1,0-.25s0,0,0,0v0a1.15,1.15,0,0,1,0-.19h0c0-.07,0-.15,0-.22a4.11,4.11,0,0,1,.25-1.09l.09-.22c.39-.9,1-1.69,1.45-2.56a8.41,8.41,0,0,0,.89-4.15,9,9,0,0,0-.19-1.55c0-.22-.11-.45-.18-.67A9.9,9.9,0,0,0,28,12.53c-.16-.35-.34-.68-.53-1a10.51,10.51,0,0,0-.64-.95,11.91,11.91,0,0,0-1.05-1.19,8.51,8.51,0,0,0-.86-.73l0,0a2.17,2.17,0,0,1,0-.26A3.42,3.42,0,0,1,25,7.57a3.18,3.18,0,0,1,.54-1.21l.51-.6,0,0a2.1,2.1,0,0,1,1.51-.66,2.3,2.3,0,0,1,.45,0,1.9,1.9,0,0,1,.4.14,1.65,1.65,0,0,1,.36.22,1.62,1.62,0,0,1,.35.34,2.35,2.35,0,0,1,.41,1.33,2.24,2.24,0,0,1-.1.68,1.09,1.09,0,0,0-.1.19.43.43,0,0,0,0,.05.09.09,0,0,0,0,0v.22a.11.11,0,0,1,0,.05s0,0,0,0a.86.86,0,0,0,.19.3l.07.07,0,0a1.75,1.75,0,0,0,1,.42,1.7,1.7,0,0,0,1-.42s0,0,0,0,.05,0,.06-.07A.64.64,0,0,0,32,8.29V8.17a.67.67,0,0,0-.22-.46l-.06-.06s0,0,0,0a1.84,1.84,0,0,0-.38-.27,1.63,1.63,0,0,0-.5-.16,1.1,1.1,0,0,0-.36,0l-.16,0A3.42,3.42,0,0,0,30,6.3,3.18,3.18,0,0,0,28.52,5,2.55,2.55,0,0,0,28,4.84a1.46,1.46,0,0,0-.29,0l-.41,0-.27,0a.89.89,0,0,0-.35.11,4.27,4.27,0,0,0-1.31,1.15v0a3.17,3.17,0,0,0-.37.58,5.22,5.22,0,0,0-.32.73s0,0,0,.06a4.54,4.54,0,0,0-.15.66c0,.05,0,.1,0,.15l-.15-.1a7.87,7.87,0,0,0-.86-.47l-.1,0a1.18,1.18,0,0,0-1,0Z" transform="translate(0 -4.82)"/><path class="cls-1" d="M18.88,14.05v1a3.89,3.89,0,0,0,0,.49h0a1.5,1.5,0,0,0,0,.2,2.58,2.58,0,0,0,.57,1.27l.52.63c.41.76,1.09.89,2.16.72l.32-.12a1.47,1.47,0,0,0,.4-.33s0,0,0,0a1.93,1.93,0,0,0,.23-.92v-.43a1.82,1.82,0,0,0-.23-.89l-1.1-2a2.58,2.58,0,0,0-.51-.68,1.9,1.9,0,0,0-1.42-.48h0a1.11,1.11,0,0,0-.54.18.46.46,0,0,0-.07.07.58.58,0,0,0-.14.17,1.2,1.2,0,0,0-.2.41h0a1.24,1.24,0,0,0,0,.33v0A2,2,0,0,0,18.88,14.05Zm.53.8a1.12,1.12,0,0,1,.47-.69c.58-.34,1.33.18,1.47.26,1,.5,1.2,1.34.93,1.86-.36.72-1.14.68-1.89.27A1.72,1.72,0,0,1,19.41,14.85Z" transform="translate(0 -4.82)"/><circle class="cls-1" cx="16" cy="11.62" r="0.64"/><path class="cls-4" d="M8,27.21H8Z" transform="translate(0 -4.82)"/><path class="cls-1" d="M8,27.21H8Z" transform="translate(0 -4.82)"/><path class="cls-1" d="M16.79,27l-.18,0H16Z" transform="translate(0 -4.82)"/><path class="cls-1" d="M16,27h-.58l-.18,0Z" transform="translate(0 -4.82)"/><path class="cls-1" d="M24.2,27a.18.18,0,0,1-.1.15H24a3.68,3.68,0,0,1-1,.14,3.52,3.52,0,0,1-2.68-1.15l0,0-.33-.4c0-.06-.11-.18-.2-.18s-.14.09-.17.13a5.55,5.55,0,0,1-.35.46l0,0a3.24,3.24,0,0,1-1.27.89,3.74,3.74,0,0,1-1.42.27h-1a3.67,3.67,0,0,1-1.42-.27,3.28,3.28,0,0,1-1.28-.89l0,0c-.12-.14-.24-.3-.36-.46s-.09-.13-.16-.13-.16.12-.2.18l-.33.4,0,0a3.52,3.52,0,0,1-2.68,1.15,3.75,3.75,0,0,1-1-.14H8A.19.19,0,0,1,7.87,27,.17.17,0,0,1,8,26.86h.07a3.59,3.59,0,0,0,.81.09,3.53,3.53,0,0,0,1.16-.19,3.43,3.43,0,0,0,1-.52,3.5,3.5,0,0,0,.39-.38,4.23,4.23,0,0,1,.51-.61.61.61,0,0,1,.32-.13h.06a.53.53,0,0,1,.34.15c.3.24.45.6.74.85a4.71,4.71,0,0,0,.42.33,4.59,4.59,0,0,0,.49.26,4.2,4.2,0,0,0,1,.25l.18,0h1.15l.18,0a3.88,3.88,0,0,0,1-.25,3.93,3.93,0,0,0,.5-.26c.15-.1.28-.22.42-.33s.44-.61.74-.85a.53.53,0,0,1,.34-.15h.06a.58.58,0,0,1,.31.13,3.73,3.73,0,0,1,.52.61,2.81,2.81,0,0,0,.39.38,3.3,3.3,0,0,0,1,.52,3.53,3.53,0,0,0,1.16.19,3.59,3.59,0,0,0,.81-.09H24A.17.17,0,0,1,24.2,27Z" transform="translate(0 -4.82)"/></svg>