<svg id="logoImgS" xmlns="http://www.w3.org/2000/svg" viewBox="0 0 45 31.84"><defs><style>.cls-1,.cls-2,.cls-3,.cls-4{fill:#fff;}.cls-2{opacity:0.31;}.cls-3{opacity:0.03;}.cls-4{opacity:0.35;}</style></defs><title>logoImgS</title><path class="cls-1" d="M13.51,4.12a13.22,13.22,0,0,0-2.26,2L11,6.42l-.18.21A12.87,12.87,0,0,0,8,14.7c0,.45,0,.89.06,1.33v0a16.93,16.93,0,0,0,.2,2.48c.25,1.54.67,3.07,1,4.59.15.68.35,1.35.49,2s.24,1.4.33,2.1c0,.3.05.59.06.89v0a7.42,7.42,0,0,1,0,.82.49.49,0,0,1,0,.12,3.25,3.25,0,0,1-.74,1.71,2.16,2.16,0,0,1-.37.37,2.55,2.55,0,0,1-.53.38A4,4,0,0,1,7,31.84,3.74,3.74,0,0,1,4.59,31a.27.27,0,0,0-.2-.07,1.3,1.3,0,0,1-1-.37,1.54,1.54,0,0,1-.17-.19,2,2,0,0,1-.34-.92,1.37,1.37,0,0,1,.3-1.1l.09-.08,0,0a1.22,1.22,0,0,1,1-.05,1.81,1.81,0,0,1,.55.29,1.36,1.36,0,0,1,.25.22,1,1,0,0,1,.14.15l.09.14,0,.07,0,0a.89.89,0,0,1,.07.19c0,.07,0,.15,0,.21a1,1,0,0,1,0,.25s0,.05,0,.07a.16.16,0,0,0,.06.08.77.77,0,0,0,.57.24A.8.8,0,0,0,6.62,30a1.84,1.84,0,0,0,.25-.17,5.82,5.82,0,0,0,.45-.4,4.27,4.27,0,0,0,.36-.38,3.32,3.32,0,0,0,.49-.93,1.91,1.91,0,0,0,.1-.34,2.08,2.08,0,0,0,.06-.36.43.43,0,0,0,0-.05v0a2.35,2.35,0,0,0,0-.27v0c0-.1,0-.2,0-.31A6.28,6.28,0,0,0,8,25.23l-.13-.31c-.55-1.27-1.4-2.38-2-3.6a11.88,11.88,0,0,1-1.26-5.83,13.41,13.41,0,0,1,.28-2.18c.07-.31.15-.63.25-1a11.87,11.87,0,0,1,.55-1.51A14.4,14.4,0,0,1,7.29,8.09,14.61,14.61,0,0,1,8.77,6.42a10.69,10.69,0,0,1,1.2-1l0,0c0-.13,0-.25,0-.38a5,5,0,0,0-.12-1.11,4.43,4.43,0,0,0-.78-1.7C9,2,8.54,1.45,8.42,1.33l-.06-.05A3,3,0,0,0,6.25.35a2.65,2.65,0,0,0-.63.08,2.27,2.27,0,0,0-.57.2,2.36,2.36,0,0,0-.51.3,2.28,2.28,0,0,0-.49.49,3.21,3.21,0,0,0-.58,1.86,3.36,3.36,0,0,0,.14,1,1,1,0,0,1,.14.27.15.15,0,0,1,0,.08.15.15,0,0,1,0,.07v.08a.13.13,0,0,1,0,.06v.09a.22.22,0,0,1,0,.08.17.17,0,0,0,0,.07.14.14,0,0,1,0,.06,1.06,1.06,0,0,1-.27.43.43.43,0,0,1-.09.1l-.05,0a2.51,2.51,0,0,1-1.45.59A2.39,2.39,0,0,1,.45,5.67l0,0-.1-.1A1,1,0,0,1,0,4.88V4.72a.94.94,0,0,1,.3-.64A.47.47,0,0,1,.4,4a.12.12,0,0,1,0,0A2.66,2.66,0,0,1,1,3.55a2.37,2.37,0,0,1,.71-.23,1.79,1.79,0,0,1,.51,0l.22.06a4.62,4.62,0,0,1,.45-1.31A4.35,4.35,0,0,1,4.89.3,4.23,4.23,0,0,1,5.67,0a2.93,2.93,0,0,1,.41,0l.57,0L7,.08a1.63,1.63,0,0,1,.5.16A6,6,0,0,1,9.37,1.87s0,0,0,0a6.38,6.38,0,0,1,.53.82,7.25,7.25,0,0,1,.44,1,.14.14,0,0,0,0,.07,6.18,6.18,0,0,1,.2.93,1.49,1.49,0,0,1,0,.21l.21-.14A10.88,10.88,0,0,1,12,4.15l.14-.07A1.66,1.66,0,0,1,12.79,4,1.59,1.59,0,0,1,13.51,4.12Z"/><path class="cls-2" d="M8.35,27.11a2.18,2.18,0,0,1,0,.25v0C8.34,27.31,8.35,27.21,8.35,27.11Z"/><path class="cls-3" d="M3.77,5v0l0,0A.14.14,0,0,0,3.77,5Z"/><path class="cls-3" d="M3.79,4.79v.09a.22.22,0,0,0,0-.08h0Z"/><path class="cls-3" d="M3.78,4.73v0a.13.13,0,0,0,0-.06s0,0,0-.07a.15.15,0,0,1,0,.07v0h0a.09.09,0,0,1,0,0Z"/><path class="cls-1" d="M18.41,12.51v-.06a1.76,1.76,0,0,0-.06-.46v0a1.69,1.69,0,0,0-.26-.58l-.2-.24-.1-.09a1.44,1.44,0,0,0-.76-.25h0a2.51,2.51,0,0,0-1.68.42l-.31.25a3.72,3.72,0,0,0-.72,1l-1.54,2.85a2.69,2.69,0,0,0-.34,1.26v.6a2.55,2.55,0,0,0,.34,1.28s0,0,0,.05a2.25,2.25,0,0,0,.57.46l.44.16c1.51.24,2.46.06,3.05-1l.72-.88a3.81,3.81,0,0,0,.81-1.78l0-.29h0a5.09,5.09,0,0,0,.05-.69,1.7,1.7,0,0,0,0-.22V13A2.52,2.52,0,0,0,18.41,12.51Zm-2.09,4c-1.05.57-2.14.63-2.66-.38-.37-.73,0-1.91,1.31-2.62.2-.1,1.26-.84,2.08-.36a1.51,1.51,0,0,1,.65,1A2.42,2.42,0,0,1,16.32,16.5Z"/><path class="cls-1" d="M31.49,4.12a13.22,13.22,0,0,1,2.26,2l.23.27a2,2,0,0,1,.18.21A12.87,12.87,0,0,1,37,14.7c0,.45,0,.89-.06,1.33v0a16.93,16.93,0,0,1-.2,2.48c-.25,1.54-.67,3.07-1,4.59-.15.68-.35,1.35-.49,2s-.24,1.4-.33,2.1c0,.3,0,.59-.06.89v0a7.42,7.42,0,0,0,0,.82.49.49,0,0,0,0,.12,3.25,3.25,0,0,0,.74,1.71,2.16,2.16,0,0,0,.37.37,2.55,2.55,0,0,0,.53.38,4,4,0,0,0,1.51.28A3.74,3.74,0,0,0,40.41,31a.27.27,0,0,1,.2-.07,1.3,1.3,0,0,0,1-.37,1.54,1.54,0,0,0,.17-.19,2,2,0,0,0,.34-.92,1.37,1.37,0,0,0-.3-1.1l-.09-.08,0,0a1.22,1.22,0,0,0-1-.05,1.81,1.81,0,0,0-.55.29,1.36,1.36,0,0,0-.25.22,1,1,0,0,0-.14.15l-.09.14,0,.07,0,0a.89.89,0,0,0-.07.19c0,.07,0,.15,0,.21a1,1,0,0,0,0,.25s0,.05,0,.07a.16.16,0,0,1-.06.08.77.77,0,0,1-.57.24.8.8,0,0,1-.44-.13,1.84,1.84,0,0,1-.25-.17,5.82,5.82,0,0,1-.45-.4,4.27,4.27,0,0,1-.36-.38,3.32,3.32,0,0,1-.49-.93,1.91,1.91,0,0,1-.1-.34,2.08,2.08,0,0,1-.06-.36.43.43,0,0,1,0-.05v0a2.35,2.35,0,0,1,0-.27v0c0-.1,0-.2,0-.31A6.28,6.28,0,0,1,37,25.23l.13-.31c.55-1.27,1.4-2.38,2-3.6a11.88,11.88,0,0,0,1.26-5.83,13.41,13.41,0,0,0-.28-2.18c-.07-.31-.15-.63-.25-1a11.87,11.87,0,0,0-.55-1.51,14.4,14.4,0,0,0-1.65-2.76,14.61,14.61,0,0,0-1.48-1.67,10.69,10.69,0,0,0-1.2-1l-.05,0c0-.13,0-.25,0-.38a5,5,0,0,1,.12-1.11,4.43,4.43,0,0,1,.78-1.7c.11-.16.59-.72.71-.84l.06-.05A3,3,0,0,1,38.75.35a2.65,2.65,0,0,1,.63.08,2.27,2.27,0,0,1,.57.2,2.36,2.36,0,0,1,.51.3,2.28,2.28,0,0,1,.49.49,3.21,3.21,0,0,1,.58,1.86,3.36,3.36,0,0,1-.14,1,1,1,0,0,0-.14.27.15.15,0,0,0,0,.08.15.15,0,0,0,0,.07v.08a.13.13,0,0,0,0,.06v.09a.22.22,0,0,0,0,.08.17.17,0,0,1,0,.07.14.14,0,0,0,0,.06,1.06,1.06,0,0,0,.27.43.43.43,0,0,0,.09.1s0,0,0,0a2.51,2.51,0,0,0,1.45.59,2.39,2.39,0,0,0,1.44-.59s0,0,.05,0l.1-.1a1,1,0,0,0,.3-.64V4.72a.94.94,0,0,0-.3-.64L44.6,4a.12.12,0,0,0-.05,0A2.66,2.66,0,0,0,44,3.55a2.37,2.37,0,0,0-.71-.23,1.79,1.79,0,0,0-.51,0l-.22.06a4.62,4.62,0,0,0-.45-1.31,4.35,4.35,0,0,0-2-1.79A4.23,4.23,0,0,0,39.33,0a2.93,2.93,0,0,0-.41,0,5.44,5.44,0,0,0-.57,0L38,.08a1.63,1.63,0,0,0-.5.16,6,6,0,0,0-1.85,1.63s0,0,0,0a6.38,6.38,0,0,0-.53.82,7.25,7.25,0,0,0-.44,1,.14.14,0,0,1,0,.07,6.18,6.18,0,0,0-.2.93,1.49,1.49,0,0,0,0,.21l-.21-.14A10.88,10.88,0,0,0,33,4.15a.61.61,0,0,0-.14-.07A1.66,1.66,0,0,0,32.21,4,1.59,1.59,0,0,0,31.49,4.12Z"/><path class="cls-1" d="M26.54,13v1.22a1.7,1.7,0,0,0,0,.22,5.09,5.09,0,0,0,.05.69h0l0,.29a3.81,3.81,0,0,0,.81,1.78l.72.88c.59,1.08,1.54,1.26,3.05,1l.44-.16a2.25,2.25,0,0,0,.57-.46s0,0,0-.05a2.55,2.55,0,0,0,.34-1.28v-.6a2.69,2.69,0,0,0-.34-1.26L30.7,12.44a3.72,3.72,0,0,0-.72-1l-.31-.25A2.51,2.51,0,0,0,28,10.81h0a1.44,1.44,0,0,0-.76.25l-.1.09-.2.24a1.69,1.69,0,0,0-.26.58v0a1.76,1.76,0,0,0-.06.46v.06A2.52,2.52,0,0,0,26.54,13Zm.76,1.12a1.51,1.51,0,0,1,.65-1c.82-.48,1.88.26,2.08.36,1.34.71,1.68,1.89,1.31,2.62-.52,1-1.61.95-2.66.38A2.42,2.42,0,0,1,27.3,14.11Z"/><circle class="cls-1" cx="22.5" cy="16.34" r="0.9"/><path class="cls-4" d="M11.31,31.49h0Z"/><path class="cls-1" d="M11.29,31.49h0Z"/><path class="cls-1" d="M23.6,31.15l-.24,0h-.81Z"/><path class="cls-1" d="M22.55,31.18h-.81l-.25,0Z"/><path class="cls-1" d="M34,31.24a.25.25,0,0,1-.14.23h-.11a5,5,0,0,1-1.42.2,5,5,0,0,1-3.77-1.62l0,0-.47-.57c-.06-.08-.15-.25-.28-.25s-.2.13-.23.18c-.16.23-.33.45-.5.65L27,30.1a4.59,4.59,0,0,1-1.8,1.25,5.19,5.19,0,0,1-2,.38H21.87a5.2,5.2,0,0,1-2-.38,4.63,4.63,0,0,1-1.79-1.25L18,30a6.57,6.57,0,0,1-.5-.65c0-.05-.14-.18-.24-.18s-.21.17-.27.25l-.47.57,0,0a5,5,0,0,1-3.78,1.62,5.13,5.13,0,0,1-1.42-.2H11.2a.27.27,0,0,1-.14-.23.25.25,0,0,1,.25-.24.2.2,0,0,1,.1,0,5.93,5.93,0,0,0,1.13.12,5,5,0,0,0,1.63-.27,5,5,0,0,0,1.36-.73,4.51,4.51,0,0,0,.54-.53,5,5,0,0,1,.73-.86.7.7,0,0,1,.44-.18h.09a.81.81,0,0,1,.47.21c.42.34.63.85,1,1.2a6.65,6.65,0,0,0,.59.46,4.68,4.68,0,0,0,.7.37,5,5,0,0,0,1.36.35l.25,0h1.62l.24,0A5,5,0,0,0,25,30.8a4.58,4.58,0,0,0,.69-.37,5.46,5.46,0,0,0,.59-.46c.41-.35.62-.86,1-1.2a.84.84,0,0,1,.48-.21h.09a.72.72,0,0,1,.44.18,5.38,5.38,0,0,1,.72.86,4.59,4.59,0,0,0,.55.53,4.76,4.76,0,0,0,1.35.73,5,5,0,0,0,1.63.27A6,6,0,0,0,33.69,31a.15.15,0,0,1,.09,0A.24.24,0,0,1,34,31.24Z"/></svg>