<svg xmlns="http://www.w3.org/2000/svg" viewBox="0 0 45 31.86"><defs><style>.cls-1,.cls-2{fill:#fff;}.cls-2{opacity:0.03;}</style></defs><title>logoImgS</title><g id="logoImgS"><path class="cls-1" d="M44.7,4.08,44.6,4a.12.12,0,0,0-.05,0A2.66,2.66,0,0,0,44,3.55a2.37,2.37,0,0,0-.71-.23,1.79,1.79,0,0,0-.51,0l-.22.06a4.62,4.62,0,0,0-.45-1.31,4.35,4.35,0,0,0-2-1.79A4.23,4.23,0,0,0,39.33,0a2.93,2.93,0,0,0-.41,0,5.44,5.44,0,0,0-.57,0L38,.08a1.63,1.63,0,0,0-.5.16,6,6,0,0,0-1.85,1.63s0,0,0,0a6.38,6.38,0,0,0-.53.82,7.25,7.25,0,0,0-.44,1,.14.14,0,0,1,0,.07,6.18,6.18,0,0,0-.2.93,1.49,1.49,0,0,0,0,.21l-.21-.14A10.88,10.88,0,0,0,33,4.15a.61.61,0,0,0-.14-.07l-.66-.24A18.24,18.24,0,0,0,22,1a19.38,19.38,0,0,0-8.29,1.76,12.36,12.36,0,0,0-3.13,2s0,0,0-.06a6.18,6.18,0,0,0-.2-.93.14.14,0,0,1,0-.07l0-.08a6.64,6.64,0,0,0-.41-1,6.38,6.38,0,0,0-.53-.82s0,0,0,0A6,6,0,0,0,7.52.24,1.63,1.63,0,0,0,7,.08L6.65,0,6.08,0a2.93,2.93,0,0,0-.41,0A4.23,4.23,0,0,0,4.89.3a4.35,4.35,0,0,0-2,1.79A4.62,4.62,0,0,0,2.42,3.4L2.2,3.34a1.79,1.79,0,0,0-.51,0A2.37,2.37,0,0,0,1,3.55a2.66,2.66,0,0,0-.53.38.12.12,0,0,0,0,0,.47.47,0,0,0-.1.1.94.94,0,0,0-.3.64v.16a1,1,0,0,0,.3.64l.1.1,0,0a2.39,2.39,0,0,0,1.44.59,2.51,2.51,0,0,0,1.45-.59l.05,0a.43.43,0,0,0,.09-.1,1.06,1.06,0,0,0,.27-.43l0,0V5a.17.17,0,0,1,0-.07.32.32,0,0,0,0-.16h0a.13.13,0,0,0,0-.06v0a.13.13,0,0,0,0-.06s0,0,0-.07a.15.15,0,0,0,0-.08,1,1,0,0,0-.14-.27,3.36,3.36,0,0,1-.14-1,3.21,3.21,0,0,1,.58-1.86A2.28,2.28,0,0,1,4.54.93a2.36,2.36,0,0,1,.51-.3,2.27,2.27,0,0,1,.57-.2A2.65,2.65,0,0,1,6.25.35a3,3,0,0,1,2.11.93l.06.05c.12.12.6.68.71.84a4.28,4.28,0,0,1,.76,1.64.14.14,0,0,1,0,.06A5,5,0,0,1,10,5c0,.12,0,.24,0,.36v0l0,0h0a10.69,10.69,0,0,0-1.2,1A14.61,14.61,0,0,0,7.29,8.09a14.4,14.4,0,0,0-1.65,2.76,11.87,11.87,0,0,0-.55,1.51c-.1.32-.18.64-.25,1a13.41,13.41,0,0,0-.28,2.18,11.88,11.88,0,0,0,1.26,5.83c.61,1.16,1.41,2.22,2,3.42l.08.18c0,.1.08.21.13.31a6.28,6.28,0,0,1,.35,1.53c0,.11,0,.21,0,.31v0c0,.1,0,.2,0,.29a.43.43,0,0,1,0,.05,2.08,2.08,0,0,1-.06.36,1.91,1.91,0,0,1-.1.34,3.32,3.32,0,0,1-.49.93c0,.05-.09.11-.15.16h0a1,1,0,0,1-.2.22,5.82,5.82,0,0,1-.45.4,1.84,1.84,0,0,1-.25.17.8.8,0,0,1-.44.13l-.17,0a.76.76,0,0,1-.4-.22.16.16,0,0,1-.06-.08s0-.05,0-.07a.76.76,0,0,0,0-.15.34.34,0,0,0,0-.1c0-.06,0-.14,0-.21a.89.89,0,0,0-.07-.19l0,0,0-.07-.09-.14a1,1,0,0,0-.14-.15l-.06-.06L4.9,28.5a1.81,1.81,0,0,0-.55-.29,1.22,1.22,0,0,0-1,.05l0,0-.09.08a1.37,1.37,0,0,0-.3,1.1,2,2,0,0,0,.34.92,1.54,1.54,0,0,0,.17.19,1.3,1.3,0,0,0,1,.37.27.27,0,0,1,.2.07A3.74,3.74,0,0,0,7,31.84a4,4,0,0,0,1.51-.28l0,0a9.31,9.31,0,0,0,2.42.32,9.45,9.45,0,0,0,1.79-.17,0,0,0,0,1,0,0h0a8.55,8.55,0,0,0,1.21-.36l.42.08a4.57,4.57,0,0,0,2-1.33l0,0,.47-.57c.06-.08.15-.25.27-.25s.2.13.24.18A6.57,6.57,0,0,0,18,30l0,.06a4.63,4.63,0,0,0,1.79,1.25,5.2,5.2,0,0,0,2,.38h1.36a5.19,5.19,0,0,0,2-.38A4.59,4.59,0,0,0,27,30.1l.05-.06c.17-.2.34-.42.5-.65,0-.05.13-.18.23-.18s.22.17.28.25l.47.57,0,0a4.36,4.36,0,0,0,1,.87h0l.33-.09a7.25,7.25,0,0,0,2.21.83,9,9,0,0,0,1.83.18,9.31,9.31,0,0,0,2.42-.32l0,0a4,4,0,0,0,1.51.28A3.74,3.74,0,0,0,40.41,31a.27.27,0,0,1,.2-.07,1.3,1.3,0,0,0,1-.37,1.54,1.54,0,0,0,.17-.19,2,2,0,0,0,.34-.92,1.37,1.37,0,0,0-.3-1.1l-.09-.08,0,0a1.22,1.22,0,0,0-1-.05,1.81,1.81,0,0,0-.55.29l-.19.16-.06.06a1,1,0,0,0-.14.15l-.09.14,0,.07,0,0a.89.89,0,0,0-.07.19c0,.07,0,.15,0,.21a.34.34,0,0,0,0,.1.76.76,0,0,0,0,.15s0,.05,0,.07a.16.16,0,0,1-.06.08.76.76,0,0,1-.4.22l-.17,0a.8.8,0,0,1-.44-.13,1.84,1.84,0,0,1-.25-.17,5.82,5.82,0,0,1-.45-.4,4.27,4.27,0,0,1-.36-.38,3.32,3.32,0,0,1-.49-.93s0-.07,0-.11a1.55,1.55,0,0,1-.06-.23,2.08,2.08,0,0,1-.06-.36.43.43,0,0,1,0-.05v0a2.35,2.35,0,0,1,0-.27v0c0-.1,0-.2,0-.31A6.28,6.28,0,0,1,37,25.23c.05-.1.09-.21.13-.31l.08-.18c.55-1.2,1.35-2.26,2-3.42a11.88,11.88,0,0,0,1.26-5.83,13.41,13.41,0,0,0-.28-2.18c-.07-.31-.15-.63-.25-1a11.87,11.87,0,0,0-.55-1.51,14.4,14.4,0,0,0-1.65-2.76,14.61,14.61,0,0,0-1.48-1.67,10.69,10.69,0,0,0-1.2-1l-.05,0c0-.13,0-.24,0-.37h0a5,5,0,0,1,.12-1.11,4.43,4.43,0,0,1,.78-1.7c.11-.16.59-.72.71-.84l.06-.05A3,3,0,0,1,38.75.35a2.65,2.65,0,0,1,.63.08,2.27,2.27,0,0,1,.57.2,2.36,2.36,0,0,1,.51.3,2.28,2.28,0,0,1,.49.49,3.21,3.21,0,0,1,.58,1.86,3.36,3.36,0,0,1-.14,1,1,1,0,0,0-.14.27.15.15,0,0,0,0,.08.15.15,0,0,0,0,.07v.08a.13.13,0,0,0,0,.06v.09a.22.22,0,0,0,0,.08.17.17,0,0,1,0,.07.14.14,0,0,0,0,.06,1.06,1.06,0,0,0,.27.43.43.43,0,0,0,.09.1s0,0,0,0a2.51,2.51,0,0,0,1.45.59,2.39,2.39,0,0,0,1.44-.59s0,0,.05,0l.1-.1a1,1,0,0,0,.3-.64V4.72A.94.94,0,0,0,44.7,4.08ZM18.46,14.21a1.7,1.7,0,0,1,0,.22,5.09,5.09,0,0,1-.05.69h0l0,.29a3.81,3.81,0,0,1-.81,1.78l-.72.88a2.52,2.52,0,0,1-.15.24c-.6.87-1.51,1-2.9.78l-.44-.16a2.25,2.25,0,0,1-.57-.46s0,0,0-.05a2.55,2.55,0,0,1-.34-1.28v-.6a2.69,2.69,0,0,1,.34-1.26l1.54-2.85a3.72,3.72,0,0,1,.72-1l.31-.25A2.51,2.51,0,0,1,17,10.81h0a1.44,1.44,0,0,1,.76.25l.1.09.2.24a1.69,1.69,0,0,1,.26.58v0a1.76,1.76,0,0,1,.06.46v.06a2.52,2.52,0,0,1,.05.48Zm4,3a.9.9,0,1,1,.9-.9A.9.9,0,0,1,22.5,17.24Zm10.08-.09a2.55,2.55,0,0,1-.34,1.28s0,0,0,.05a2.25,2.25,0,0,1-.57.46l-.44.16c-1.51.24-2.46.06-3.05-1l-.72-.88a3.81,3.81,0,0,1-.81-1.78l0-.29h0a5.09,5.09,0,0,1-.05-.69,1.7,1.7,0,0,1,0-.22V13a2.52,2.52,0,0,1,.05-.48v-.06a1.76,1.76,0,0,1,.06-.46v0a1.69,1.69,0,0,1,.26-.58l.2-.24.1-.09a1.44,1.44,0,0,1,.76-.25h0a2.51,2.51,0,0,1,1.68.42l.31.25a3.72,3.72,0,0,1,.72,1l1.54,2.85a2.64,2.64,0,0,1,.25.66,2,2,0,0,1,.09.6Z"/><path class="cls-1" d="M3.78,4.65v.06a.13.13,0,0,0,0-.06s0,0,0-.07A.15.15,0,0,1,3.78,4.65Z"/><path class="cls-1" d="M3.79,4.79v.09a.22.22,0,0,0,0-.08Z"/><path class="cls-2" d="M3.79,4.79v.09a.22.22,0,0,0,0-.08Z"/><path class="cls-2" d="M3.78,4.73v0a.13.13,0,0,0,0-.06s0,0,0-.07a.15.15,0,0,1,0,.07v0a.09.09,0,0,1,0,0Z"/><path class="cls-1" d="M14.48,31.4a4.85,4.85,0,0,1-1.63.28,8.55,8.55,0,0,0,1.21-.36Z"/><path class="cls-1" d="M32.17,31.68a5.18,5.18,0,0,1-2.54-.74l.33-.09A7.25,7.25,0,0,0,32.17,31.68Z"/></g><g id="圖層_2" data-name="圖層 2"><path class="cls-1" d="M16.32,16.5c-1.05.57-2.14.63-2.66-.38-.37-.73,0-1.91,1.31-2.62.2-.1,1.26-.84,2.08-.36a1.51,1.51,0,0,1,.65,1A2.42,2.42,0,0,1,16.32,16.5Z"/><path class="cls-1" d="M31.34,16.12c-.52,1-1.61.95-2.66.38a2.42,2.42,0,0,1-1.38-2.39,1.51,1.51,0,0,1,.65-1c.82-.48,1.88.26,2.08.36C31.37,14.21,31.71,15.39,31.34,16.12Z"/><path d="M10,5.38l0,0v0S10,5.37,10,5.38Z"/></g></svg>